<svg width="195.95" height="369.57" viewBox="0 0 195.95 369.57" xmlns="http://www.w3.org/2000/svg"><rect x="162.80" y="14.00" width="19.15" height="329.09" fill="#464232"/><rect x="14.00" y="25.33" width="19.15" height="330.24" fill="#464232"/><polygon points="160.56,162.03 160.56,179.43 138.06,170.73" fill="#ffffff"/><polygon points="160.56,135.99 160.56,153.39 138.06,144.69" fill="#ffffff"/><polygon points="35.28,57.28 35.28,74.68 57.78,65.98" fill="#ffffff"/><polygon points="160.56,292.98 160.56,310.38 138.06,301.68" fill="#ffffff"/><polygon points="35.28,109.36 35.28,126.76 57.78,118.06" fill="#ffffff"/><polygon points="35.28,187.48 35.28,204.88 57.78,196.18" fill="#ffffff"/><polygon points="160.56,57.87 160.56,75.27 138.06,66.57" fill="#ffffff"/><polygon points="160.56,266.57 160.56,283.97 138.06,275.27" fill="#ffffff"/><polygon points="160.56,83.91 160.56,101.31 138.06,92.61" fill="#ffffff"/><polygon points="160.56,240.15 160.56,257.55 138.06,248.85" fill="#ffffff"/><polygon points="160.56,109.95 160.56,127.35 138.06,118.65" fill="#ffffff"/><polygon points="35.28,161.44 35.28,178.84 57.78,170.14" fill="#ffffff"/><polygon points="160.56,214.11 160.56,231.51 138.06,222.81" fill="#ffffff"/><polygon points="160.56,188.07 160.56,205.47 138.06,196.77" fill="#ffffff"/><polygon points="35.28,213.52 35.28,230.92 57.78,222.22" fill="#ffffff"/><polygon points="160.56,320.51 160.56,337.91 138.06,329.21" fill="#ffffff"/><polygon points="35.28,239.56 35.28,256.96 57.78,248.26" fill="#ffffff"/><polygon points="35.28,292.38 35.28,309.78 57.78,301.08" fill="#ffffff"/><polygon points="35.20,31.24 35.20,48.64 57.70,39.94" fill="#ffffff"/><polygon points="35.28,265.97 35.28,283.37 57.78,274.67" fill="#ffffff"/><polygon points="35.28,319.91 35.28,337.31 57.78,328.61" fill="#ffffff"/><polygon points="35.28,135.40 35.28,152.80 57.78,144.10" fill="#ffffff"/><polygon points="35.28,83.32 35.28,100.72 57.78,92.02" fill="#ffffff"/><polygon points="160.49,31.83 160.49,49.23 137.99,40.53" fill="#ffffff"/></svg>