<svg width="193.26" height="252.78" viewBox="0 0 193.26 252.78" xmlns="http://www.w3.org/2000/svg"><rect x="12.00" y="39.90" width="83.70" height="5.58" fill="#ffffff"/><rect x="12.00" y="151.50" width="83.70" height="5.58" fill="#ffffff"/><rect x="12.00" y="12.00" width="83.70" height="5.58" fill="#ffffff"/><rect x="97.56" y="39.90" width="83.70" height="5.58" fill="#ffffff"/><rect x="12.00" y="67.80" width="83.70" height="5.58" fill="#ffffff"/><rect x="12.00" y="179.40" width="83.70" height="5.58" fill="#ffffff"/><rect x="97.56" y="207.30" width="83.70" height="5.58" fill="#ffffff"/><rect x="97.56" y="235.20" width="83.70" height="5.58" fill="#ffffff"/><rect x="97.56" y="123.60" width="83.70" height="5.58" fill="#ffffff"/><rect x="12.00" y="123.60" width="83.70" height="5.58" fill="#ffffff"/><rect x="97.56" y="12.00" width="83.70" height="5.58" fill="#ffffff"/><rect x="12.00" y="235.20" width="83.70" height="5.58" fill="#ffffff"/><rect x="97.56" y="95.70" width="83.70" height="5.58" fill="#ffffff"/><rect x="12.00" y="95.70" width="83.70" height="5.58" fill="#ffffff"/><rect x="97.56" y="151.50" width="83.70" height="5.58" fill="#ffffff"/><rect x="97.56" y="67.80" width="83.70" height="5.58" fill="#ffffff"/><rect x="12.00" y="207.30" width="83.70" height="5.58" fill="#ffffff"/><rect x="97.56" y="179.40" width="83.70" height="5.58" fill="#ffffff"/></svg>